<svg width="3179" height="1000" viewBox="0 0 3179 1000" fill="none" xmlns="http://www.w3.org/2000/svg">
<g clip-path="url(#clip0_2044_3)">
<path d="M1000 0H0V1000H1000V0Z" fill="#0A0A0A"/>
<path d="M309.862 578.443C341.942 542.37 375.993 527.736 411.473 530.899C445.728 533.954 478.35 553.416 508.832 578.492C537.913 602.415 564.842 617.257 590.139 619.513C614.211 621.659 639.713 612.608 667.196 581.704C672.586 575.644 681.867 575.1 687.927 580.489C693.988 585.879 694.532 595.161 689.142 601.222C657.063 637.295 623.012 651.929 587.532 648.766C553.277 645.711 520.654 626.249 490.173 601.173C461.092 577.25 434.162 562.409 408.865 560.153C384.793 558.007 359.292 567.057 331.809 597.961C326.42 604.021 317.137 604.565 311.077 599.176C305.016 593.786 304.472 584.504 309.862 578.443ZM309.862 399.777C341.942 363.704 375.993 349.069 411.473 352.232C445.728 355.287 478.35 374.749 508.832 399.825C537.913 423.749 564.842 438.59 590.139 440.846C614.211 442.992 639.713 433.941 667.196 403.037C672.586 396.977 681.867 396.434 687.927 401.823C693.988 407.213 694.532 416.494 689.142 422.555C657.063 458.628 623.012 473.263 587.532 470.1C553.277 467.045 520.654 447.583 490.173 422.507C461.092 398.583 434.162 383.742 408.865 381.486C384.793 379.34 359.292 388.39 331.809 419.294C326.42 425.354 317.137 425.898 311.077 420.509C305.017 415.119 304.473 405.838 309.862 399.777Z" fill="white"/>
</g>
<path d="M1224.8 440.6H1153.4V394.4H1224.8V320.9C1224.8 300.833 1226.67 282.633 1230.4 266.3C1234.13 249.5 1240.43 235.033 1249.3 222.9C1258.63 210.767 1270.77 201.433 1285.7 194.9C1300.63 187.9 1319.07 184.4 1341 184.4C1348 184.4 1355.47 185.1 1363.4 186.5C1371.33 187.9 1377.87 190 1383 192.8L1375.3 241.8C1362.23 237.133 1349.87 234.8 1338.2 234.8C1324.2 234.8 1313.23 237.367 1305.3 242.5C1297.37 247.167 1291.3 253.933 1287.1 262.8C1283.37 271.2 1281.03 281.467 1280.1 293.6C1279.63 305.733 1279.4 318.8 1279.4 332.8V394.4H1359.2V440.6H1279.4V722H1224.8V440.6ZM1409.6 192.8H1464.2V722H1409.6V192.8ZM1553.88 558.2C1553.88 532.533 1558.31 509.2 1567.18 488.2C1576.04 467.2 1588.18 449.233 1603.58 434.3C1618.98 418.9 1637.41 407 1658.88 398.6C1680.34 390.2 1703.68 386 1728.88 386C1754.08 386 1777.41 390.2 1798.88 398.6C1820.34 407 1838.78 418.9 1854.18 434.3C1869.58 449.233 1881.71 467.2 1890.58 488.2C1899.44 509.2 1903.88 532.533 1903.88 558.2C1903.88 583.867 1899.44 607.2 1890.58 628.2C1881.71 649.2 1869.58 667.4 1854.18 682.8C1838.78 697.733 1820.34 709.4 1798.88 717.8C1777.41 726.2 1754.08 730.4 1728.88 730.4C1703.68 730.4 1680.34 726.2 1658.88 717.8C1637.41 709.4 1618.98 697.733 1603.58 682.8C1588.18 667.4 1576.04 649.2 1567.18 628.2C1558.31 607.2 1553.88 583.867 1553.88 558.2ZM1612.68 558.2C1612.68 575.467 1615.24 591.567 1620.38 606.5C1625.98 620.967 1633.91 633.8 1644.18 645C1654.44 655.733 1666.58 664.367 1680.58 670.9C1695.04 676.967 1711.14 680 1728.88 680C1746.61 680 1762.48 676.967 1776.48 670.9C1790.94 664.367 1803.31 655.733 1813.58 645C1823.84 633.8 1831.54 620.967 1836.68 606.5C1842.28 591.567 1845.08 575.467 1845.08 558.2C1845.08 540.933 1842.28 525.067 1836.68 510.6C1831.54 495.667 1823.84 482.833 1813.58 472.1C1803.31 460.9 1790.94 452.267 1776.48 446.2C1762.48 439.667 1746.61 436.4 1728.88 436.4C1711.14 436.4 1695.04 439.667 1680.58 446.2C1666.58 452.267 1654.44 460.9 1644.18 472.1C1633.91 482.833 1625.98 495.667 1620.38 510.6C1615.24 525.067 1612.68 540.933 1612.68 558.2ZM2339.8 722H2285.9L2192.8 470H2191.4L2108.8 722H2052.8L1946.4 394.4H2006.6L2081.5 646.4H2082.9L2167.6 394.4H2225L2311.1 646.4H2312.5L2386.7 394.4H2445.5L2339.8 722Z" fill="#0A0A0A"/>
<defs>
<clipPath id="clip0_2044_3">
<rect width="1000" height="1000" fill="white"/>
</clipPath>
</defs>
</svg>
